/* XPM */
static char *_85b78b3db4a44c1db29da25fe616f13MecjrV1osf7WKxbW[] = {
/* columns rows colors chars-per-pixel */
"64 64 248 2 ",
"   c #0F0B07",
".  c #0E0C09",
"X  c #120703",
"o  c #150A05",
"O  c #1B0B05",
"+  c #130D0A",
"@  c #1A0E09",
"#  c #14110E",
"$  c #1B130D",
"%  c #161512",
"&  c #191613",
"*  c #171816",
"=  c #1A1916",
"-  c #1B1B19",
";  c #260F07",
":  c #261309",
">  c #24130C",
",  c #2B140B",
"<  c #34140A",
"1  c #3B1609",
"2  c #351A0F",
"3  c #231B14",
"4  c #271A15",
"5  c #2A1C13",
"6  c #231E19",
"7  c #351B13",
"8  c #1E211D",
"9  c #3F230F",
"0  c #2A2216",
"q  c #272219",
"w  c #24221D",
"e  c #2B241D",
"r  c #352315",
"t  c #3C2214",
"y  c #33251B",
"u  c #39251B",
"i  c #32291E",
"p  c #3B2B1E",
"a  c #252521",
"s  c #2A2622",
"d  c #272925",
"f  c #2B2925",
"g  c #2D2C2A",
"h  c #372B26",
"j  c #332C24",
"k  c #3B2D22",
"l  c #322E2A",
"z  c #2F302C",
"x  c #353126",
"c  c #3C3225",
"v  c #35332C",
"b  c #3B352C",
"n  c #3C392E",
"m  c #363631",
"M  c #3B3631",
"N  c #363933",
"B  c #3D3B34",
"V  c #3E3E39",
"C  c #491607",
"Z  c #441B0D",
"A  c #561B09",
"S  c #531F11",
"D  c #691D0B",
"F  c #5B230C",
"G  c #452314",
"H  c #4D2512",
"J  c #4C2414",
"K  c #472718",
"L  c #422B1C",
"P  c #4B2C1B",
"I  c #542414",
"U  c #542A14",
"Y  c #572919",
"T  c #4A311D",
"R  c #6C290D",
"E  c #672B15",
"W  c #762E15",
"Q  c #63361B",
"!  c #79361A",
"~  c #432E23",
"^  c #532D20",
"/  c #433325",
"(  c #4B3625",
")  c #43362B",
"_  c #4C362B",
"`  c #443A2D",
"'  c #4B3B2D",
"]  c #563A29",
"[  c #433C34",
"{  c #4C3E33",
"}  c #423E3A",
"|  c #4B3F39",
" . c #5F3E30",
".. c #612E21",
"X. c #663B25",
"o. c #793B22",
"O. c #3C4136",
"+. c #3E413B",
"@. c #78411D",
"#. c #59422C",
"$. c #454136",
"%. c #4B4235",
"&. c #44423C",
"*. c #4B443C",
"=. c #47483D",
"-. c #4D4A3D",
";. c #534334",
":. c #5B4736",
">. c #52443B",
",. c #534A3D",
"<. c #5B4D3E",
"1. c #5A503C",
"2. c #67452A",
"3. c #79472B",
"4. c #624534",
"5. c #664935",
"6. c #6B4C3C",
"7. c #764C35",
"8. c #64523C",
"9. c #6B563A",
"0. c #6B533C",
"q. c #77583D",
"w. c #3F4240",
"e. c #454541",
"r. c #4B4642",
"t. c #474A44",
"y. c #4C4A44",
"u. c #4C4D4A",
"i. c #514742",
"p. c #534D44",
"a. c #5C4E42",
"s. c #524E49",
"d. c #594E4B",
"f. c #4D514B",
"g. c #545144",
"h. c #5C5245",
"j. c #54534C",
"k. c #5B554B",
"l. c #57594F",
"z. c #5C5A4E",
"x. c #545551",
"c. c #5A5651",
"v. c #5C5B53",
"b. c #585C55",
"n. c #644E42",
"m. c #625344",
"M. c #685945",
"N. c #62564C",
"B. c #635B4C",
"V. c #6B5C4C",
"C. c #745B49",
"Z. c #605750",
"A. c #635C53",
"S. c #695D54",
"D. c #635D59",
"F. c #755D52",
"G. c #5E625A",
"H. c #6B624C",
"J. c #79664B",
"K. c #646254",
"L. c #6B6354",
"P. c #6B6957",
"I. c #64635B",
"U. c #6B645B",
"Y. c #6B6B5C",
"T. c #786555",
"R. c #756955",
"E. c #7C6C53",
"W. c #73655A",
"Q. c #736B5C",
"!. c #7B6C5C",
"~. c #6A715F",
"^. c #7B7054",
"/. c #75735D",
"(. c #7C725E",
"). c #696762",
"_. c #6C6C63",
"`. c #746B63",
"'. c #746865",
"]. c #7A6C63",
"[. c #736D69",
"{. c #6C7063",
"}. c #747264",
"|. c #7B7264",
" X c #74746B",
".X c #7B746A",
"XX c #747A6B",
"oX c #7C7A6C",
"OX c #787871",
"+X c #7D7B72",
"@X c #8E2D0E",
"#X c #85391A",
"$X c #963A15",
"%X c #A83E11",
"&X c #843E24",
"*X c #99481A",
"=X c #93521B",
"-X c #AA4C1B",
";X c #874526",
":X c #954928",
">X c #915331",
",X c #A65627",
"<X c #B65928",
"1X c #B96932",
"2X c #C25C24",
"3X c #835C48",
"4X c #856648",
"5X c #846B55",
"6X c #866B59",
"7X c #877459",
"8X c #82735D",
"9X c #957055",
"0X c #B76D4C",
"qX c #836A61",
"wX c #837363",
"eX c #877866",
"rX c #83756B",
"tX c #847B6C",
"yX c #8B7D6C",
"uX c #957868",
"iX c #917D6B",
"pX c #837D72",
"aX c #877E76",
"sX c #7F806E",
"dX c #7E8277",
"fX c #C3833A",
"gX c #BA8451",
"hX c #84816D",
"jX c #8B826C",
"kX c #94836D",
"lX c #848273",
"zX c #8C8474",
"xX c #84847A",
"cX c #8A857C",
"vX c #8B8B7B",
"bX c #93857B",
"nX c #97897A",
"mX c #AC8B73",
"MX c #7F8582",
"NX c #8B8985",
"BX c #948C84",
"VX c #8B9189",
"CX c #9B9183",
"ZX c #969288",
"AX c #999890",
"SX c #A5938F",
"DX c #A3998C",
"FX c #C2B2A1",
/* pixels */
"m.NXu.u.>.[ # $ C.}.} &.y.b % s R.V.&.[ b.j.- g Q.rXk / N.[ + q R.M.c ] m.{ = f q.yX[ v z.v % w .XQ.B f.g.f.* w Y.Y.&.e.%.&.# d ",
"vXNXu.j.z.&.* 4 T.V.B } h.b % 4 0X0X[ [ _.x.* 6 wX|.q k m.y % 3 2.#.r *.3.%.& j >X3X` [ A.s.6 i 7XxX*.x.D.&.% w K.dX&.&.k.t.* g ",
"ZXxXu.s.U.*.* $ :.8.B v h.&.% w !.!.=.s._.x.* g tXM.j e p.[ # 3 Q.` 4 [ { &.= 0 5XkX3X-.A.s.= b Q.xX*.u.W.[ o > 5.`.&.e.x.t.* v ",
"aXpXy.$.I.y.* 3 A.0.[ b h.[ @ e 6X|.t.u.K.u.= l zXM.} B b } + a  X6.i j N.k.- r iXFXd.y.I.s.- l lXpXv B d.[ # : F.! 2 f b.e.* g ",
"BXg.B x %.y.+ ; 4.yXb c <.L @ 6 0XSXe.j.xXj.& j nXFXp.y.j.*.* d ,.`.[ c h.s.= e ,.bX&.&.b.e.* f U.U.} v x e.% ; W E r &.b.j.- m ",
"yXh.r.i.N.y.= 2 X.>Xh v %.c # w cX`.b D.[.U.X.0.wXnXr.u.v.y.- s +XV.&.u.( y.> e ,.zXe.t.b.t.- f +X+Xv b ` } = : ;.m.c f D.s.* l ",
"xX XB j / 2 o < W 6.w v ) $.= g xXU.*.s.I.&.& l bXDXs.j.K.y.+ > lXNXe.j -.u.& w oXbXs.j.v.$.& 6 A.Y.l b b &.= d +X XV +.D.s.- e ",
"oXVXr.u.I.y + 5 o.E q v %.M # d }.+X&.n b.y.% l CXCX=.y.Z.h.= v CXlXm B G.} = a `.+X*.t.v.&.* w Q.[.b b f.&.% d pXxX+.e.D.e.- g ",
".XbXY r.` y + s W u & 5 %.i . d XXxXb =.I.u.* d CXR.&.e.d.Y $ e ] >.q f c.B % f oXXXO.&.z.&.% w Q.L.v M c.B % d pXxX+.j._.t.- f ",
"nXhX| $.b.u.= f :Xk v h u 5 . l }.ZX&.[ b.t.* d pXbXV s.j.[ = $ ( .XB B g.V % d sXlXO.&.j.[ % w P.L.b n g.O.% w oXpX&.s.[.s.* f ",
"+XzXY [ b.y.% * V.B B q b &.% g MXVXe.} I.y.# d BXCX&.r.j.M . a .XwXB B j.y.* x lXXXO.=.D.y.= 6 q.!.~ v -.B % a _._.b u ).e.% d ",
"oXlX[ &.b.c + # 8.8.B e u.u.* g OXpX} [ z.&.% d xXaXV &.j.V . w ;.rX&.} j.+.% f CXxXy.t.U.l.* w 3X|.M v &.x # a _.U.J [ Z.s.= g ",
"BXcXe.e.b.t.% a /.pXB e.b.t.* g MX XM [ l.[ % d nXpXV &.I.e.% a I.(.[ y.x.*.% l yXCX=.j.I.y.= f |.oXM b B x # w !.uXI { G c O e ",
"BXxXe.t.b.t.# q E.E.b &.v.t.% f +X`.M $.d.[ % d zXtX&.&.v.B % w oX+XB y.l.t.* l nXuX[ u.).j.= s }.|.m g $.c # 6 #X$XC I Y 1 : e ",
"bXZXf.u.).&.% q :X7.[ Y c.u.% s OXoXv B l.$.% f tXpXV +.l.B % a }. X&.&.,.&.% 3 wXDXj.j.I.V % d {.A.v f =.B % 6 C.@XC A A C O t ",
"XXXXu.f.U.r.* e wXW.J Y A.u.% f aX+XV [ B.$.* z VXoX&.b z.&.% d _.+X&.&.,.[ + s (.CX_. Xx.r.= a _.W.h p ,.x % w qX$XC C E F < e ",
"ZXoX&.&.k.} * f Q.6.p } u.B % f lX.Xe.&.k.&.* d +XoX&.&.N.&.= g BXNX&.&.l.B # 6 R.8X$._.).u.* f tX1X:XT >X/ o e :X6XC C A J & G ",
" XzXt.=.).r.= q R.8.b ^ v.&.% f vX.XV &.B.y.= s yX8Xb &.N.} & s NX+X&.t.b.e.% 3 h.(.v c v.u.- g +XgX[ [ >X:X$ > 6.E C 1 R Z % s ",
"Z.cXu.$.v.=.% f P.H.} &.j.B % d dXxXV *.c.r.# s kXmX;.[ ,.[ = l ZXZXr.*.v.u.+ 3 L.zXb *.F.s.* a BX1X[ %.,XF O e &XD 1 k A C o s ",
"a.A.*.[ h.&.# w T.H.B &.z.&.% d XX+XV +.u.} % s uXuX;.*.h.[ % f zXlX} &.c.V # 3 M./.n V k.t.* w |.<X! *X<XP O < R E < 1 F ) $ 5 ",
"N.R.h %.U.$.& f 8X|.b n z.B % a [.OXV &.j.V % = n.|.[ :.S.&.= w +X{.&.&.<.&.# w /./.j v &.V % 8 I.4XE *X<XF + a |.}.I ) I B % a ",
"aXa., / :.~ + e iXiXB } c.*.* a OXxXV B u.} # s n.N.i.&.D.i.= s XXxXw.&.Z.&.% g DXDXB B u.&.% a NXP.B ] ,XF O d XX XM &.s.&.% d ",
"^ I &.) Z 7 + l ZXpXB =.z.=.* d pXrXm } u.V % w lXyXd.N.].i.& a  XrX[ &.x.t.* g xXvXB O.f.e.= l eX^.B G 5.| = d tXoX&.m e.B = a ",
"uX,X/ / 4./ = 5 BXoXV &.l.=.- l pXV.x &.h.s.% a tXtX=.k.z.$.% a XXlXV =.Z.y.- d +XxXy.y.l.} = c mXjX` ` k.[ = f oXoXV &.b.m - s ",
";XF.k , ] / * d ].NX} } I.=.= f nXxX&.e.v.x.= f tXtX*.k.x.[ # f zXyX&.=.l.*.= v  X+X&.d.V.*.* k mXjX$.*.z.b = f |.`.v v c.v @ a ",
"-X@XZ y ] Z o 6 aX.XB e.b.&.% d pX Xn [ h.i.& f bXtX&.s.K.&.% f zXtX*.=.v.*.* d pXmX6.C.7Xh.= j kXjXn n p.>.= s #X&X[ G P [ & d ",
"3X%XC 1 F u @ e cXdX&.[ j.t.* g /.,.b &.h.*.= d tXoX*.z.U.$.& s zXlX&.*.z.&.% d vXaX} >.F.C.3 ~ mXbXj $.,.p.= e #X5X-.p.N.G @ e ",
"-X@XF C D Z : e .XVXt.*.x.e.% a ,.>.b &.B.&.* d oXlX+.u.K.{ & f rXzX&.*.z.&.% d xX].7 4.] <.= l bXyX$.d.b.*.% , uXo.2 b G b = 6 ",
"$X%XF P E k = s cXNXe.j.v.*.= l  XaX&.t.z.*.* f oXlX=.y.M.%.% s !.pXV e.j.&.% s .X5.< 6.3Xn.= l yXh.[ r.i.i.* j pXE 2 c _ &.= < ",
"$X7.Z ;X,X*.* w xXxXe.j.b.&.= g .XoX+.x.b.&.= f lX).[ { ,X3.& d +XXX[ +.t.} % s 8XE.r c Y ` = l pXrXj [ c.) % a h...b r K y.* e ",
"$X*X;X>.5./ = 6 Q.xX&.e.z.s.* g zXzX&.=.b.=.= f tX}.[ %.>X_ % a +X+XB [ j.[ = s wXtXc { #.{ 3 f n.T.B j >.[ + & <.!.&.h d.} % w ",
"M.:.;Xb l./ > , |.pXG *.l.[ @ f .XoXV &.h.$.& f .XP.B &.a.v % f lXoX} &.j.[ & s Q.|.&.b Z.,.4 l ].6.[ / ;.[ % & 4.(.[ c d.c % q ",
"B.m./ i %.L o 3 E U.b [ a.G # 6 o.K.B [ j.[ % s oX.X} &.d.b # w 8XR.B &.A.e.% d !.lXr.>.S.y.= k M.J.c k ( y # w Y.|.&.b ' k # w ",
"K.S.v.[ `.X.- 6 Q W.y 7 I ~ O : Q. Xb b -.M % w S.K.x b p.b < 0 <X>XB &.A.r.% w +XzX=.*.L.*.* j jXzX[ i *.p % & L.3.) G P p # d ",
" X+X_.I.L.~ + $ X.yXk ' W F o 3 !.|.B n ,.n % 6 _.Z.l v >.b & < 2XwX[ &.D.r.* d pXbXt.p.L.t.% d +XlXi y / / $ > 5X;Xt K :.K $ d ",
" ..X+.c b.j.+ 4 yXzXK Y n.r o ; ! 6Xn ' B.$.% q S.v.x c 2./ C C <X7XL [ k.&.% f +XoXB e.I.*.% f zXpXB } g.%.$ 3 ,X-XG G Y k % a ",
"M.+XV &.D.*.+ a bXbX[ | Z.j # $ E.o.[ %.B.B # w H.V.v t $XW O , <XgX` B s.$.% e |.tX} *.A.&.% s zXtXv B j.*.= s ;X*XH T U r + 3 ",
"uXbXr.c.I.*.% g vXiXK t Y 0 + $ 8X5Xk %.,.$.# 6 1X1Xc j ' k ; ; 5XtXB [ s.[ % a +X+XB =.b.b # w }. Xj [ h.*.& 2 @.;XZ U U P $ 5 ",
"L..XV y.|.` = g cXxX=.[ L b % : 9X<X) p T / < q C.L.v v %.` D 0 7XtX&.[ p.B % a }..X} &.I.[ % f L.B.v B h.[ # > o.=Xt U Q U @ 5 ",
" XL.v *.v.$.= d ZXcX&.&./ M % s 8X3.p [ 5.r $ q 1X!.B B $.n $ e |.|.[ $.N.[ % a .X|.} u.I.[ * s V.g.h b s.y + > X.3.U J Y T # s ",
"L.xXb *.l.&.= f AX+XV y.K.B   $ J.E.%.{ #X9 < 4 J.8.v m $.[ % e Q.|.B +.Z.*.& f tX Xe.*.h.b % w wXtXM B s.k + 4 3.>XP _ ^ ' & i ",
"!.cXt.%.B.&.% d +X+X&.t.z.y   s jX7X$.$.m.) # w 9.K.M v &.n % w Q.}.B +.k.*.% d |.Y.e.u.D.k # s |.hX[ &.s.k + &  .6.~ ~ ;.' + e ",
"'.<.[ *.B.&.= f +X+X&.r.c.[   & jXkX[ %.B.$.# e !.P.b x &.v % a E.v.v B l.=.% f cXNX&.u.v.| # w CXjX[ [ ;.r + 3 3.;Xk 5 / p + 5 ",
"0. .k f y.&.* d lXxX*.&.x.&.. e tXyXv v $.n % w L.W.b v $.[ = s oX~.m t.s.&.% d sX[.V +.U.y.- v rXQ.B u ;.P & s 6XC.` ) P ^ @ 3 ",
"J.0.` k y.V % d +X}.m B v.&.% 0 q.J.x v $.[ % e 8XQ.b $.-.&.& s oXY.e e.u.B % a  XOXe.u.N.[ # l V.'.b [ :.P @ e !.V.` u P t $ 4 ",
":.(.[ c I.t.% a +XxX&.*.v.*.% s L.z.x v $.v + 6 o.M.v [ k.b % a hX}.B &.j.[ % s .X+XB &.).&.% j yXbX[ i.N.y @ 6 M.9.) k 3X) % 3 ",
",.|.u.s.).&.% a _.XXV =.v.e.% w L.z.v b -.b + a Q.o.) [ z.&.% d lX.X&.&.h.} % d (.xXB [ m.*.* j B.zXp / P ) # $ 9.9.l b g.b + q ",
"-.N.} s.N.V % d  X+X&.[ v.&.% w U.K.v B ,.b # a `.Q.l 7 k.*.* f {.`.V &.s.&.% s yXxXv *.a.y.= s h./.f b t 0 + = `.rXb &.l.B # w ",
"h.' M ] s.V % d [..XM j p.n % w U.L.x v -.B o & o.F.7 h p.[ % a '.{.B +.j.V % a cXtXv } %.&.& j uXT.M ` i 4   & A.oXc v l.[ & s ",
"S.h.y M u.M % a +X+Xv n 4./ O 4 V.V.x b -.V % a &X#Xk k g.B % w L.!.Q B f.V % a tX(.[ &.*.{ & f kX3.M [ <.i   $ Q.tXb b >.b & s ",
"S.N.7 u *.B % a '.1.b n E C @ : V.k.v b t.v % a #XW 2 c ,.b % 1 1XR.b +.d.L % - _.pX} &.N.>.& 5 yX!.[ *.n.[ % = M.W.[ b >.c % s ",
"+XS.b b 4.[ + a  XN./ ( X.C O 6 V.B.x v *.m % w C.5.b ` y.j # , 5X#XZ b ] j % a Q.`.m &.D.{ + e yX3.' ' ) b % w ,.:.b %.N.&.& g ",
"+X'.B } >.[ % d }.Q.G S *XP @ 6 K.Y.v v &.M % e &X! b ` g.[ @ s tX*XJ U _ l # a I._.m &.A.&.% f zX!.' I ' m + w S.}.V B k.;.& s ",
"+X+X[ >.X.>.* s |.(.L / =XP # w K.P.v v t.M % y F.].[ %.h.*.% d }.Y.B b J &.= d ).XX&.&.v.=.& s }.|.[ _ 5.&.% 6  XQ.[ } i.*.- f ",
"aXNXn Y V.B * d |.tXb ` =X` % 5 6XwXM B ,._ & y |.tX&.t.A.&.% d XX[.M I S [ o f +X|.m *.A.t.= a }.oXB G i f # > '.].[ M >.%.= g ",
"NXR.>.>.X.b * w Y.+XB [ a.I % q L.8X$.B t.v % f pX9X&.t.l.=.% d ].;XZ I 6.8.$ i oX_.B V j.B * s A.!.u j *.0 X $ k.W.M } h.{ & s ",
"eXiXQ ) A.r.* d tXdX+.+.p.` $ W 2.C.[ B y.[ % f 9XyX*.t.A.t.% d T.!.) 4.! 0.5 i  XI.v *.b.v % 6 Y.5.[ M ` 1 X 6 '.[.B V h.*.& 2 ",
"4Xq.! Q *.b & f 8X].m ` p.` O @XJ.:Xv n i.&.* f pXxXV &.y.B & f ;X;X) U 4X;.% s |.A.B &.v.[ # w  XS.[ j a.2 X > Z.}.V &.j.[ @ 3 ",
"<XmX3.[ g.b % f tXP.V b i.` & W 4XfXc M d.&.& s  XpX} &.c.&.% w |.4X] #.m.%.& s L._.v M $.B % a I.P.f m $.b X = '.'.M V p.e + 5 ",
"8XhX$.$.5Xq.3 f lXlX} [ 1.` % 0 (.E.x v -.y.* f  X X[ e.v.M % w T.q.] #.N.*.& 6 6.Y.b B [ B # w _.D.v B y.B % a _.B.u &.l.b . $ ",
"5XkX$.7.<.8.# q +X+X} &.g.$.% e L.z.x n =.B * l +XoX&.r.g.n % w q.E.%.%.q.%.& 3 4.' x h | B % a I.K.m B t.M # w v.b.l B *.&.% q ",
"J.J.j c / b # q XX+X&.&.D.&.% w Q.B.x M y.y.* g tXoX%.*.h.n + & 1.T.%.&.N.%.& 3 0.4.j [ h.&.# w _.I.v m t.v % w ).xXB &.g.b % 3 ",
"wXzXj 0 ` 0 . $ 8.H.[ [ k.$.% w L.L.b B A.&.* g pXtX&.$.h.[ & e (.V.| *.N.[ & 6 m./ 3 j K h + w _.U.m v &.v % 8 _.cXe.e.c.j # 4 ",
"C.pX*.f / e % q H./.n $.A.t.% s Q.B.B B k.e.* z oXtX} t.Z.t.% s Q.#.[ [ k.[ & 6 ' { p B ,.[ % a }.nXt.N &.m - a K._.&.&.{ B % q "
};
