/* XPM */
static char *collec[] = {
/* width height num_colors chars_per_pixel */
"64 64 3 1",
/* colors */
". c None",
"# c #FF6B6B",
"@ c #FFD93D",
/* pixels */
"................................................................",
"................................................................",
"................................................................",
"................................................................",
"................................................................",
"................................................................",
"..........................@@@@@@................................",
"........................@@@@@@@@@@..............................",
"......................@@@@@@@@@@@@@@............................",
".....................@@@@@@@@@@@@@@@@...........................",
"....................@@@@@@@@@@@@@@@@@@..........................",
"....................@@@@@@@@@@@@@@@@@@..........................",
"...................@@@@@@@@@@@@@@@@@@@@.........................",
"...................@@@@@@####@@@@@@@@@@.........................",
"...................@@@@@######@@@@@@@@@.........................",
"...................@@@@@######@@@@@@@@@.........................",
"....................@@@@######@@@@@@@@..........................",
"....................@@@@######@@@@@@@@..........................",
".....................@@@######@@@@@@@...........................",
"......................@@######@@@@@@............................",
"........................########................................",
"..........................####..................................",
"................................................................",
"................................................................",
"................................................................",
"................................................................",
"................................................................",
"................................................................",
"................................................................",
"................................................................",
"................................................................",
"................................................................",
"................................................................",
"................................................................",
"................................................................",
"................................................................",
"................................................................",
"................................................................",
"................................................................",
"................................................................",
"................................................................",
"................................................................",
"................................................................",
"................................................................",
"................................................................",
"................................................................",
"................................................................",
"................................................................",
"................................................................",
"................................................................",
"................................................................",
"................................................................",
"................................................................",
"................................................................",
"................................................................",
"................................................................",
"................................................................",
"................................................................",
"................................................................",
"................................................................",
"................................................................",
"................................................................",
"................................................................",
"................................................................"
};