/* XPM */
static char *_d58b448169b42dac295f5f8fdac80e41RXuiWbBk1TvjW9k[] = {
/* columns rows colors chars-per-pixel */
"64 64 242 2 ",
"   c #0E0E0E",
".  c #100E0F",
"X  c #0F1011",
"o  c #141313",
"O  c #171719",
"+  c #191719",
"@  c #1B1A1C",
"#  c #19201E",
"$  c #1E1E20",
"%  c #211F21",
"&  c #1F2021",
"*  c #232324",
"=  c #2A2525",
"-  c #252528",
";  c #2A262B",
":  c #272A2B",
">  c #2C2B2C",
",  c #322C2E",
"<  c #3D342F",
"1  c #2D2E31",
"2  c #2B2C39",
"3  c #312E31",
"4  c #3E2F3C",
"5  c #2C3334",
"6  c #333234",
"7  c #3B3536",
"8  c #363639",
"9  c #393639",
"0  c #383938",
"q  c #3B3A3C",
"w  c #482E33",
"e  c #48373A",
"r  c #433C3E",
"t  c #3A413E",
"y  c #293844",
"u  c #3D3D42",
"i  c #3A3847",
"p  c #423D43",
"a  c #473A49",
"s  c #543B45",
"d  c #463B56",
"f  c #3C4245",
"g  c #3F475C",
"h  c #434344",
"j  c #4A4344",
"k  c #484A46",
"l  c #44444A",
"z  c #4A454A",
"x  c #454A4B",
"c  c #4B4A4B",
"v  c #544848",
"b  c #524B4D",
"n  c #4E524C",
"m  c #52534E",
"M  c #494756",
"N  c #4D4C52",
"B  c #524D52",
"V  c #584A58",
"C  c #4D5153",
"Z  c #49555A",
"A  c #535354",
"S  c #585555",
"D  c #54535B",
"F  c #5B555C",
"G  c #545C5D",
"H  c #5C5B5C",
"J  c #654B59",
"K  c #665757",
"L  c #63555C",
"P  c #635C5D",
"I  c #705B58",
"U  c #4C655A",
"Y  c #58635D",
"T  c #65625C",
"R  c #4C4A67",
"E  c #5B4D62",
"W  c #495564",
"Q  c #5B5662",
"!  c #535D63",
"~  c #5D5C62",
"^  c #585969",
"/  c #475F75",
"(  c #595C72",
")  c #635C63",
"_  c #6B5C63",
"`  c #6F566E",
"'  c #625B6B",
"]  c #68586A",
"[  c #745A65",
"{  c #675C74",
"}  c #5C6163",
"|  c #5A6568",
" . c #4E6A74",
".. c #5C6473",
"X. c #646365",
"o. c #6B6464",
"O. c #696B64",
"+. c #64646B",
"@. c #6C646C",
"#. c #646A6B",
"$. c #6B6A6C",
"%. c #736364",
"&. c #73646C",
"*. c #736C6C",
"=. c #796969",
"-. c #66716D",
";. c #74726E",
":. c #646373",
">. c #6B6473",
",. c #646B73",
"<. c #6C6B73",
"1. c #65677B",
"2. c #6C6C7B",
"3. c #766575",
"4. c #736C74",
"5. c #7A6D74",
"6. c #746D7B",
"7. c #7B6D7B",
"8. c #6D7374",
"9. c #6C737B",
"0. c #687678",
"q. c #747374",
"w. c #7B7374",
"e. c #7A7B75",
"r. c #73737B",
"t. c #7B747B",
"y. c #747A7C",
"u. c #7B7A7C",
"i. c #856E6D",
"p. c #846B75",
"a. c #867677",
"s. c #83767C",
"d. c #837B7C",
"f. c #7A837D",
"g. c #88837B",
"h. c #536884",
"j. c #7B6D82",
"k. c #6D7984",
"l. c #767383",
"z. c #7A7482",
"x. c #757C83",
"c. c #7C7C83",
"v. c #72778D",
"b. c #77788A",
"n. c #7C7C8A",
"m. c #836E84",
"M. c #837583",
"N. c #827C84",
"B. c #8B7884",
"V. c #827C8C",
"C. c #8B7D8A",
"Z. c #937C89",
"A. c #877E91",
"S. c #917D96",
"D. c #768587",
"F. c #7D8385",
"G. c #758A8F",
"H. c #7D8792",
"J. c #7592A1",
"K. c #848384",
"L. c #8B8484",
"P. c #878A86",
"I. c #84838B",
"U. c #8B858B",
"Y. c #848B8D",
"T. c #8C8B8C",
"R. c #978788",
"E. c #92828C",
"W. c #928B8C",
"Q. c #8C928E",
"!. c #94928D",
"~. c #858492",
"^. c #8C8592",
"/. c #858B92",
"(. c #8D8B93",
"). c #87899B",
"_. c #8D8C9B",
"`. c #978995",
"'. c #938C94",
"]. c #938C9B",
"[. c #849596",
"{. c #8C9394",
"}. c #8D939B",
"|. c #939395",
" X c #9B9395",
".X c #999A95",
"XX c #94949B",
"oX c #9B959B",
"OX c #949A9C",
"+X c #9B9B9D",
"@X c #A38D99",
"#X c #A5989A",
"$X c #A39C9D",
"%X c #9BA19E",
"&X c #A3A19D",
"*X c #938EA1",
"=X c #8D95A5",
"-X c #9495A2",
";X c #9B95A2",
":X c #949BA3",
">X c #9C9CA3",
",X c #9B99AA",
"<X c #A39DA3",
"1X c #AA9CA3",
"2X c #A89BA8",
"3X c #AC9BAD",
"4X c #9DA2A4",
"5X c #9BA7A6",
"6X c #9BA3A9",
"7X c #A3A3A5",
"8X c #ABA3A5",
"9X c #A0A9A6",
"0X c #A5A5AA",
"qX c #ABA5AC",
"wX c #A4AAAC",
"eX c #ABAAAC",
"rX c #B3A6AC",
"tX c #B3ABAD",
"yX c #A9B7AE",
"uX c #A6A9B2",
"iX c #ACACB2",
"pX c #B3ACB2",
"aX c #B8ADB7",
"sX c #ABB2B4",
"dX c #A6B5B8",
"fX c #B4B3B5",
"gX c #B5B3B9",
"hX c #B9B5B8",
"jX c #BBBABB",
"kX c #C4A9B3",
"lX c #C2B8BC",
"zX c #BDB8C3",
"xX c #C4BCC2",
"cX c #C9BEC1",
"vX c #BEC1C5",
"bX c #C7C5C7",
"nX c #D1CED2",
"mX c #D4D4D6",
"MX c #D8D6D9",
"NX c #DAD9DB",
"BX c #E6E6E8",
"VX c #EAEAEB",
/* pixels */
"@ O O O @ O @ @ O @ O O @ O O @ O @ @ @ @ @ O O @ @ @ O O @ O @ $ @ @ @ @ @ @ @ & @ @ O @ @ @ $ @ & $ @ @ @ @ @ @ O @ @ @ @ $ @ ",
"@ n.2._.H.I._.oX*X).+X_.:X].-X*X].).2X}.:XXX+X}.+XXX>X].-X,XXX=X,X6XXX:X+X].oX).=Xn.:X_.]._.XX;X<X_.=X).=X).;XXX^.=X3X_.,X<X-X* ",
"* j.* - ! * i Q X.J j d 0 Z b V u l N k a J M W V E g M s B F E M J N n F M s ' M l d N b F p j J D Z W d D q g M D > N - - ] ; ",
"- x.- 3XR : ; - > > ; ; 1 > > > ; - > ; > ; : : : : > > ; > 1 > - > > : > : - ; ; > ; > > : : : ; > : ; - - > - > ; > u.fX> 0.> ",
"; r.Q R _ 4.B.^ u 3.x.M.6.5.l.9.D.c.1.e.<.M.c.C.d.p.V.y.! $.2.{ f Z.6.^.d.s.N.W.I.7.[ 7.$.{.t.{ R ' 2.^ ,.{ >.1.@./.i.K.s.t.x.> ",
": ].3 , $.k.c.$.,.L.K.M.5.p.<.b.9.2.#.4._ m.c.Y.g.q.p.# 8  .r.r./ ^.^.P.$.q.N.t.+.D.W.D.K.1XZ.|.{.<XY.a.I. X1XI.u.i.L.s.6 9 1.9 ",
"9 |.G 8 C._.X.c.s.D S.y.,.z.0.1._ q.1.D.<.l.r.|.^.D.b.qXz 6.A.x.L.Z.m.[.R.'.^.~.b.I.^ V.C.B.K.l.6.'.b.|.Y.W.+X5X`.1XwX<Xp K.oXq ",
"q oX&.q >.~.D.pXgXgX0XiXeXfXfXhXgXiXjXgXaXaXpXgXjXhXgXjXnXxXuXsXiXgXjXpXlXjXzXbXxXlXzXbXcXgXfXjXxXbXbXzXbXjXcXxXoX_.+X'.p {.W.h ",
"u ^.,.9 E.L.t.7XK.<.c.w.<.!.b.(.'.I.A.E.'.+X+XP.V.d.(.~.$.aXoXqXT.~.H.T.W.5X;Xb.^.(.'.}.|.I.}.x.(.OX;X<X;X'.#X.XH 0XT.I.a P.'.k ",
"p {.r.u t.{.P.<XoXc h I.R.y.a.p.u.U.|.t.oXR.R.'.^.V.C.+./.J.n.c.x.I..X%XXX^.9XU.I.j.B.K.8X3Xc.:X1X;X+XoX|.b A 7X3.+X>XXXb /.+Xc ",
"h OX2.C 7.>XI.kX(.h jXC.V.I.$XT./.I.n.2.V.>X~.C.H.^.V.<X'.W.R.#X].{. X<X].<X:XXX(.E.oX7X$X$X(.XX:XoXI.9XwXbXN aX/.<X<X>XB `.6XN ",
"h ~.>.N XX2X+XtX#X XN $XoXoX.XoXqX7X$X1X&XB.>XXXOX#X^.n.[.].XX'.#X6XXXXX0X0XuXpXgXpX8X5X7X7XwX7XpX6X0X0XeXS uX7Xc.tXpX9XA P.qXA ",
"x 0Xu.x -X(.>X<XU.(.:XoXqX>X>XoXoX7XeX8X7X&X>X#XOX].~.`.%X|.}.>X>X X1XrXfX,XqX>XXX<X7X0X7X3XrXfXrXuX$X7X7X+XwX4Xu.2X0X7XN T.wXS ",
"N 0XI.A 2XOX9XiXbXn.|.$Xc c j l x c c j c l l k T.(.].(.>X>XqXc c h j C c B k c <XeXl 8XrX2XdXpXpXlXsXrX0XeXuX<Xj.6X0X7XF oX>XH ",
"X.hX7XH hXeX2XrX5XoXXXY.q c ) S A F H ~ b H H D >X8X X1X$X:XuXx P F } P H } D _ eX#X+X<X0XqX>XeXqXhXqX>X8XrX|.eXI.1XsXfXX.}.pXA ",
"$.fX(.D XXOXpXgX0X1X$X8XH P 4.*.;.*.q.*.) q.8.&.pXP.p ;XwX7X0XB $.w.t.r.q.&.w.;.jX7XrXeXqX6XxXpX>XuX0X0XeXpXiX0XT.0XpX9X} <XsXX.",
"&.6X@.D qXeXrXhX0X<X6X8XS P 5.w.w.f.5.4.u.Y.a.N.hX<XeXtX0XtX|.C P c.r.9.r.s.u.u.lXqXuXyXuXiXfX0X7XiXtX>XeXsXfXuXW.qXiXsXX..XiX+.",
"G jX).F 0X5XhXcXtXxXtXtXA Q s.N.u.t.M.w.w.Z x U.sX-X6XeX0X>X|.N F q.@.r.+.2.q.4.gXqX6X$XqXpXuXwXfXeXpXtXfXwXiXiXU.9X7XqX} oX>XX.",
"D hX#XX.-XaXeXeXfXtX|.pXb c ;.q.u.u.d.<.c.q.q.K.hXtXtXiXuXaXwXB ) 4.&.<.*.w.K.hX0X7X+X7X5XXXXX}.iX0XwXpXeXqXpXgX(.uXwX0X} +XhXL ",
"o.bX3XH zXaXaXOX<XfXF.uXB P %.w.x.D.t.N.4.4.r.#.H C N x C l C l ) #.*.8.O.2.vXaXsX4XoXsXeXeXeX>X<X+X>X0X6X>X>XqXU.5X7XOXD XX>XD ",
"H fX#XT pX0XqXjX,XeX<X1Xc A >.%.Z $.<.q.e.c.,.Q qXwXzXaXeXpX1Xc A r.@.<.o.tX1XoX;XoXXX5XoX>X6X>X+X2X7X7X(.<X9X7Xc.9X7X>XF _.0XF ",
"H jX$X#.$XqX+XsX8X7XpXdXc } ~ r.u.;.P F t.*.+.$.fXqX<X$X0X;X1Xx A <.o.$.eX@X-X4XqXXX,X7XqXqX6X<X:XXXoX2X+X6X7X#Xu.$X7XXXA ~.(.) ",
"D gX<X) pX(.OX;XdX.XeX7Xc G X.$.q.*.4.$.t.5.+.~ tXwX<X#X|.oX|.z A X.S XX:XOXOX'.pXiX,X>XuX-X|.].OX>XqX<X,XaXpXeX4.9XoXoXF 4X<XG ",
"A iXW.B .X4X+X0XoX5XuX<Xh S 0.*.O.P $.~ P $.+.H >X XW.oX`.|.oXh l } 0X$X+X:XOXuXk k h c l j c c c c l c c k u c 7.>XXX.XF ~.2XA ",
"b fX|.N OX>X+X$XR.>X&X<Xh N H o.o.T ~ X.~ X.X.H 7X X%X'.XX|.+Xh N 2X7X1X XoXaXh >X@X<X+X6XoXoX XXX+XOXE.#X'.{.+Xe.&X.XXXQ ~.>XH ",
"m eXP.B  XoX+XaX*X>X7X.Xh D ) X.X.X.P P X.+.X.P qX<XXX>XM. X+Xh <XU.].`.OX8Xh oX#X+X|.XX$X$X|.'.`.|.(.|.'.@X(.}.3.].OXT.c F. Xc ",
"A &XR.b .XoX$X X.X.X.XQ.q h S P A b P Y T X.M ) 7XoX`.;X|.+X{.Q.4X XT.$X<Xh  X|.'.T.@X;X{.{.W.+X$X.X(.{.}.'.#X5X$.'.:X(.c |.'.c ",
"c 6Xu.c XXU.XX5XN.x.|.T.q k F H m F H H L H H X.7X|. XXX XoX|.}.L.|.|.%X9 >XT.(.K.W.T.>X|.|.{..X|.oX;X'.-XQ.OXY.+.-X}.Y.c 5._.l ",
"z #Xw.c '.I.T.;X`.N.OXL.t h D G b H F C D b A A <X}.T.N.H.Y.(.'.W.W.<Xe |..XW.L..XE.T.U.).}. X=X'.|.oX(. XI.T.W.@.W.t.`.h r./.c ",
"h XX9.u r.<.2.!.R.^.T.XX9 l S B S S b A S B N S (.T.M.6.N.`.c.r.n.'.9  X'.u.~._.Y.}.V.L./.~.Y.U.'.}.|./.P.U.T.+XX.|.~.P.N K.u.z ",
"h '.y.p K.Y.K.L.n.V.K.t.8 p v C c A N N N x N A I.N.w.L.F.F.N.U.(.9 R.t./.c.K.I.6XK.S.H./.U.~..X(.A.n.K.Y.F./.}.&.n.L.^.c $.<Xh ",
"u oX4.7 U.d.`. XH.K.Y.c.8 u N b C N B k v x B A >XI.K.'.C.zXa.oX9 /.u./.M.9.n.F.VXVXH.VX(.OXVXVXVXN.x.K.H.2.b.U.>./.d.^.r >.(.h ",
"9 R.y.k K.y.R.7XB.{.T.K.0 p c c h h c b c N A c `.(.c.y.i.E.W.9 '.q.V.u.d.T.I.VXNXNXMXNXNXW.NXNXNXMXh.B.t.t.u.t.F F.r.K.f t.(.h ",
"h [.} u B.s.Z.|.U.(.N.u.0 h A A B c B b C N N B !.U.@.f.K.I.oX6 ~.L.V.Y.r.(.c.MXNX^.I.VXMXXXI.E.VXmXN.x.r.l.K./.P '.c.`.f 4.l.u ",
"6 XXE.7 8.q.r.W.c._.@.B.6 8 b l N j x c b N j c `.K.K.c.d.L.K.6 XXF.Y.c.I.L.).k.NXG.P.W.NXF.I.D.VXNXN.y.L.N.'.L.L a.[.;Xp u.P.p ",
"t  Xu.q [.L.u. XE.T.T.u > 6 p p h f h h N l x c `./.f.C.d.c.`.6 {.B.F.N.l.w.V.NXMXT.g.VXV.[.b.V.VXD.S.].C.l.n./.c N.Q.^.f *.!.q ",
"q OX` 7 c.N.F.W.L.T.n.t.5 q x z l x j a j r p u I.+.9.=.c.l.c.% b.u.4.c.C.l.} mXMXt.K.VXs.u.l.U.VXu.L.e.r.I.k.I.Z x.(.y.q q.E.q ",
"7 R.8.6 e.w.u.L.y.2.p.w.1 9 f f h l q x h h x p (.t.B.b.N.B.(.- z.2.1.u.<.l.s.VXMXVXVXMXNXu.BXVXmXMXy.BX6.2.L.l.B T.z.l.7 0.s.8 ",
"6 `.1.6 F.K.F.'.6.r.q.D.3 q h u h p x t h r h p ^.5.e.5.p.=.W.1 I.N.c.M.9.m.F.Q mXmXmXmX3.r.M.mXNXNXNXmXK.r.V.U.F M.r.&.6 8.F.6 ",
"6 |.&.6 z.4.w.U.d.q.I.w.3 9 q u h h p h q r r r {.y.r.n.x.c.'.1 N.(.t.0.r.q.u.0.' 4.Y.I.d.C.4.M.n.q.:.l.~.t.y.C.D q./.G.6 8.z.7 ",
"6 |.Y 6 g.o.a.I.c.u.i.4., 8 h a r p q r p q q q {.p.s.j.:.R ^.> L.t.I.2.q.t.f.$.VX3.mXx.nXBXF.MXVXx.NX4.L.^.L.x.V n.M.Z.* l n.3 ",
"6 s.^ 6 M.0.t.I.c.,.r.,.: 1 r p 9 p q u u 9 p 9 /.@.q.l.M.y.T.; N.D.t.q.5.i.r.>.l.G.c.s.%.i.t.V.q.r.t.r.0.w.t.f.F U.B.D ; a F ; ",
", '.O.> G.2.~.E.r.) 8.D : > 9 q 9 9 7 u q q 7 6 ^.<.M.4.B.y.|.- r.5.q.d.q.;.D.>.nXBXMXY.VXw.NXmXl.VXE.F.z.q.U.w.m L.c.W.1 $.t.> ",
"> P.^ , 2.~ 6.!.1.5.w.4.; 1 8 9 0 7 q q q q 9 6 C.u.%.N.6.:.c.: {._ 9.u E M E E ] :.N.5...z.v.n.u.C.i.2 F.l.t.N.a u.n.' 3 } t.> ",
": P.) > 2.t.0.u.C.Q @.:.- 1 q 8 8 7 6 6 : : 8 0 I.8.y.q.$.$./.; P.+.B.l.8.<.1.2.* - *.- - 4.* - I.; : z.V.7.p.V.U $.s.D.6 @.$.6 ",
"> C.@.> r.-.u.L.y.H $.8.$ > 6 8 1 > 6 1 6 > 8 6 n.N.+.t.;.q.N.* l.w.0.+.4.9.s.N.* : r.; 1 y.- 1 >.* > +.d.K.N.$.l <.x.F.> T I.> ",
"; '.' * 6.r.' r.a 4._ u.* : 8 , 3 > 9 6 1 6 6 6 x.V i $.` r.H.* 4.{ ^ ^ K $.7.c.* > ( * > u.* ; $.* : p.F.j.K.c.a u.m...; <.@.; ",
": B.H ; $.2.$.P.:.9.{ #.* ; 1 > 3 1 > - 1 > ; > +.} H >.8.^ r.* d.&.' r.$.l.X.w.$ ; 5.* ; #.- - 3.* = $.5.V.z.K.N 5.r.8.; Z I.- ",
"- C.C ; @.I <.u.4.] ] B.* = 6 > > 3 3 3 6 6 6 , ^.8.q.*.2.^ }.* F._ y.y.N.K.5.4.* ; :.* - 4.% = q.* - <.2./.u.N.c q.D.2.- ,.L.: ",
"* t.d - X...0.D.M.O.c +.@ * 6 > > > 6 6 > 6 1 > ^.K.t.+.7.E I.@ c.{ 3.2.M k.M t.$ ; N.* : ,.& - +.% - D.@.6.~ ' 4 4.' r.- X.k.: ",
"* s.Y * o.B ! c.F ] P ' & * : ; > ; > ; > ; : > w.w.2.w.( [ +.@ I.{ ,.B 3.C.4.r.@ * c.$ - C.@ * &.@ - *.3.q.4.q.f *.( 3.- ~ _.- ",
"* u.h * ] D G r.+.} %._ *.K.Y.2.M.c.`.^.T.x.c.c.U.M.8.%.#.,.F.& c.#.&.>.q.<.4.>.<.8.4.0.y.w.:.q.G.4.=.t.+.<.&.l.h &.6.0.* ~ c.- ",
"* c.! * o.o.P 5.Q & & d.q.! @.} H @.<.~ r.L &.*.-.%.8.P _ >.I.@ e.+.w.w.r.9.5.@.o.&.N.N.w.y.p.1.K.t.5.e.w.* * 9.5 y.4.$.* W z.$ ",
"@ r.S & ^ 8.V L.` @ wXo.f.$.X.#.0.y.$.4.4.a.>.$.l.] &.o.o.2.d.@ T.4.O.a.,.r.) [ +.D #.<.u.>.:.:.q.u.+.M $.qX% { i 9.2.$.$ @.^ $ ",
"$ r.a O C R ] 8.] X.@ Q C ( _ P O.L 3.U F r.{ q.&.$.H 3.+.L *.O A.$.' +.L o.@.+.2.j._ q.%.2.-.m <.s.$.<.3.@ E 9.: >.3.( @ M ..@ ",
"@ t.a @ @.+.$.Z._ $.6.T ,.@.K >.K ! 8.F ,.| _ *.| 0.%.8.) %.t.+ c.' T ^ O.C.=.t.[ ) P M.I 4.] | ~ @.u.t.{ 2.c.$.q ..' ( O Z 9.@ ",
"+ T.d @ 3.E ) % O @ o O O O O O O O O O @ O @ + O @ O O O O O + O O O + + O @ @ @ O O O O O + O O o o o O @ @ @ O 2.x.1.@ Q ..@ ",
"+ y.= + % M ; * l e M f | W c H 7 u ;.G J H T %.,.&.D <._ V S 3.~ 5.] Y _ 3.~ u.M y <.~ K _ m.l.r.] <.8.^ M 6.k.t.0.R X.+ T ^ O ",
"+ w.O O K K X.%.2 ! M E B W F M M F S v K $.[ Q ) F ! w.7.X.O.J r.@.o.#.B t.2.&.9  .+.X.y.>.>.<.~ L D J H 3.X.0.F <.9.] O o 9.X ",
"o p.t.q.Q +.+.^ 6.W i { _ X.S S ) :.) u.l.! 3.+.O.<._ 0.G K ) P } E [ ^ ) ~ &.$.@ ' ) X.#.q.+.,.M +.B.) o.{ $.q._ X.h.' G ! z.o ",
"o o.o $XF o o o o o o o o o o o o o o o o o o o o o o o o o o o o o o o o o o o o o o o o o o o o o o o o o o o o o o r.0Xo 3.o ",
"  *.o o z . 6 z N Z ! t V l , h m L D B M b w < w a ~ B A v e R A v b w 3 B w = v c v j l 6 8 s e i 5 y B | 2 ] M F o J.o o 6.o ",
"o $.D D #.B ~ W G ~ C A s S Y I o.S e N K m c J F A S #.A H A F | D P q.~ E V K | @.} ;.A P F D ~ #.2.F e.@.:.D.7.l 8.q.M.,.,.o ",
"    .               .   .   X X     o             .       .     .           o                                               X   "
};
