/* XPM */
static char *door[] = {
/* width height num_colors chars_per_pixel */
"64 64 3 1",
/* colors */
". c None",
"# c #4ECDC4",
"@ c #1A535C",
/* pixels */
"................................................................",
"................................................................",
"................................................................",
"...............@@@@@@@@@@@@@@@@@@@@@@@@@........................",
"...............@@@@@@@@@@@@@@@@@@@@@@@@@........................",
"...............@@######################@@.......................",
"...............@@######################@@.......................",
"...............@@######################@@.......................",
"...............@@######################@@.......................",
"...............@@######################@@.......................",
"...............@@######################@@.......................",
"...............@@######################@@.......................",
"...............@@######################@@.......................",
"...............@@######################@@.......................",
"...............@@######################@@.......................",
"...............@@######################@@.......................",
"...............@@######################@@.......................",
"...............@@######################@@.......................",
"...............@@######################@@.......................",
"...............@@######################@@.......................",
"...............@@######################@@.......................",
"...............@@######################@@.......................",
"...............@@######################@@.......................",
"...............@@######################@@.......................",
"...............@@######################@@.......................",
"...............@@######################@@.......................",
"...............@@######################@@.......................",
"...............@@############@@########@@.......................",
"...............@@############@@########@@.......................",
"...............@@############@@########@@.......................",
"...............@@############@@########@@.......................",
"...............@@############@@########@@.......................",
"...............@@############@@########@@.......................",
"...............@@######################@@.......................",
"...............@@######################@@.......................",
"...............@@######################@@.......................",
"...............@@######################@@.......................",
"...............@@######################@@.......................",
"...............@@######################@@.......................",
"...............@@######################@@.......................",
"...............@@######################@@.......................",
"...............@@######################@@.......................",
"...............@@######################@@.......................",
"...............@@######################@@.......................",
"...............@@######################@@.......................",
"...............@@######################@@.......................",
"...............@@######################@@.......................",
"...............@@######################@@.......................",
"...............@@######################@@.......................",
"...............@@######################@@.......................",
"...............@@######################@@.......................",
"...............@@######################@@.......................",
"...............@@######################@@.......................",
"...............@@######################@@.......................",
"...............@@######################@@.......................",
"...............@@@@@@@@@@@@@@@@@@@@@@@@@........................",
"...............@@@@@@@@@@@@@@@@@@@@@@@@@........................",
"................................................................",
"................................................................",
"................................................................",
"................................................................",
"................................................................",
"................................................................",
"................................................................"
};