/* XPM */
static char *player[] = {
/* width height num_colors chars_per_pixel */
"64 64 3 1",
/* colors */
". c None",
"# c #FFD700",
"@ c #FFA500",
/* pixels */
"................................................................",
"................................................................",
"................................................................",
"................................................................",
".....................###########................................",
"..................###@@@@@@@@@###...............................",
"................###@@@@@@@@@@@@@###.............................",
"...............##@@@@@@@@@@@@@@@@@##............................",
"..............##@@@@@#######@@@@@@@##...........................",
"..............#@@@##.........##@@@@@#...........................",
"..............#@@@#...........#@@@@@#...........................",
"..............#@@@#...........#@@@@@#...........................",
"..............#@@@##.........##@@@@@#...........................",
"..............##@@@##########@@@@@@@##..........................",
"...............##@@@@@@@@@@@@@@@@@##............................",
"................###@@@@@@@@@@@@@###.............................",
"..................###@@@@@@@@@###...............................",
".....................###########................................",
"......................#########.................................",
".....................###########................................",
"....................###@@@@@@@###...............................",
"....................##@@@@@@@@@##...............................",
"....................##@@@@@@@@@##...............................",
"....................##@@@@@@@@@##...............................",
"....................##@@@@@@@@@##...............................",
"....................###@@@@@@@###...............................",
".....................###########................................",
"....................###.......###...............................",
"....................##.........##...............................",
"....................##.........##...............................",
"....................##.........##...............................",
"....................##.........##...............................",
"....................##.........##...............................",
"....................##.........##...............................",
"....................##.........##...............................",
"....................##.........##...............................",
"....................##.........##...............................",
"....................##.........##...............................",
"....................##.........##...............................",
"....................##.........##...............................",
"....................##.........##...............................",
"....................##.........##...............................",
"....................##.........##...............................",
"....................##.........##...............................",
"....................##.........##...............................",
"....................##.........##...............................",
"....................##.........##...............................",
"....................##.........##...............................",
"....................##.........##...............................",
"....................##.........##...............................",
"....................##.........##...............................",
"....................##.........##...............................",
"....................##.........##...............................",
"....................##.........##...............................",
"....................##.........##...............................",
"....................##.........##...............................",
"....................##.........##...............................",
"....................##.........##...............................",
"....................##.........##...............................",
"................................................................",
"................................................................",
"................................................................",
"................................................................",
"................................................................"
};
