/* XPM */
static char *_2fd713ba4b342d4ae4e7d92fc1a6d73[] = {
/* columns rows colors chars-per-pixel */
"54 55 133 2 ",
"   c None",
".  c #030004",
"X  c #1E0106",
"o  c #1D0509",
"O  c #1F080D",
"+  c #0C0C19",
"@  c #130F1B",
"#  c #1D141B",
"$  c #220509",
"%  c #22090D",
"&  c #220D12",
"*  c #221014",
"=  c #24161C",
"-  c #24181D",
";  c #291A1E",
":  c #331E1F",
">  c #3C1F1F",
",  c #3C211F",
"<  c #261722",
"1  c #251A22",
"2  c #2E1C23",
"3  c #311621",
"4  c #321E25",
"5  c #2E222A",
"6  c #342025",
"7  c #3D2323",
"8  c #382228",
"9  c #43221F",
"0  c #49221F",
"q  c #5F271E",
"w  c #5D281E",
"e  c #63291E",
"r  c #422624",
"t  c #4C2421",
"y  c #442825",
"u  c #4D2C26",
"i  c #462C28",
"p  c #4E2C28",
"a  c #522521",
"s  c #592620",
"d  c #562B25",
"f  c #5C2A24",
"g  c #562E29",
"h  c #5E2F29",
"j  c #4E3027",
"k  c #553227",
"l  c #553229",
"z  c #5A352A",
"x  c #622B21",
"c  c #6A2D23",
"v  c #653024",
"b  c #6C3227",
"n  c #6D352A",
"m  c #663A2D",
"M  c #6A3C2E",
"N  c #733224",
"B  c #7A3424",
"V  c #75372B",
"C  c #7B3728",
"Z  c #753A2C",
"A  c #7B3D2E",
"S  c #7C3E30",
"D  c #6F402F",
"F  c #71412F",
"G  c #724231",
"H  c #7B4532",
"J  c #7E4832",
"K  c #813126",
"L  c #813E2D",
"P  c #8C3F2B",
"I  c #8E442F",
"U  c #92432F",
"Y  c #834231",
"T  c #894431",
"R  c #934631",
"E  c #934A33",
"W  c #9B4E36",
"Q  c #9B4D36",
"!  c #984F37",
"~  c #9C4E38",
"^  c #965137",
"/  c #945338",
"(  c #9C523B",
")  c #9D593D",
"_  c #A04B33",
"`  c #A1563B",
"'  c #A5563A",
"]  c #A4553C",
"[  c #A5563C",
"{  c #A7573D",
"}  c #A15238",
"|  c #AC513A",
" . c #AB563E",
".. c #A6583C",
"X. c #BE5C3C",
"o. c #DB553A",
"O. c #E45739",
"+. c #9E5B41",
"@. c #A25C41",
"#. c #AC5E41",
"$. c #A96547",
"%. c #B06045",
"&. c #B26045",
"*. c #B46749",
"=. c #B7654B",
"-. c #B5674B",
";. c #B3674B",
":. c #B46849",
">. c #B5684B",
",. c #B6684A",
"<. c #B76A4C",
"1. c #B76B4F",
"2. c #B46A4A",
"3. c #B8694C",
"4. c #B86A4E",
"5. c #BA6E4E",
"6. c #B9704F",
"7. c #BA7252",
"8. c #937662",
"9. c #A07C62",
"0. c #D56A46",
"q. c #C47856",
"w. c #B7936F",
"e. c #AF8F71",
"r. c #C38C6B",
"t. c #D6A372",
"y. c #CEA981",
"u. c #D0AB80",
"i. c #D5AE88",
"p. c #D7B68C",
"a. c #DEC094",
"s. c #E2C599",
"d. c #E8CF9B",
/* pixels */
"                                                                                                            ",
"                                                                                                            ",
"                                                        - - 4 4 4 4 4                                       ",
"                                                    - - 4 k J J J M l 4 =                                   ",
"                                                  % - 6 l l M m M G M y 8 X                                 ",
"                                                  = = 4 z l l g l H H u < -                                 ",
"                                              = = = 6 7 r z z r z z l G l 8 =                               ",
"                                          = = r 7 = = = 7 r r y y i k l l l r =                             ",
"                                    * = = 4 r r = d 3.T = r r ~ 1.>.1.7 l 4 R a =                           ",
"                              = = = = = 4 l l 4 = E d >.4 4 L >.*.*.*.I , E 1.R =                           ",
"                          = = r l l l l l l 6 4 - E f r f 4 Q A s c B #.b 3._ t =                           ",
"                        = 4 l G F F j z r 4 4 4 6 = N u 4 4 Q T O.K ; x N r o.= =                           ",
"                      = 4 l l l G l l l l l 4 6 4 = = = r 4 4 Q B x f  .5.P c = =                           ",
"                      = = l l l l l H G D l l 4 4 4 = = l r 4 4 B ' ` N r { 7 x = =                         ",
"                    = = 4 l 4 l l F G G l l l r 6 = = k l 4 4 6 0.{ { q.&.&.*...= =                         ",
"                  = r 4 r 4 l l l l l l l l r r 6 = l l 4 7 4 c | < . p.- c = w.= 4 =                       ",
"                = r r r r 4 l 4 l l 7 r r r r 4 6 = = = 7 7 4 A n 4 . s.= = > y.= 4 =                       ",
"              - 4 2 r r r 4 4 4 7 r r r r 4 2 4 4 4 = r 4 r 4 A h 4 3 . = = , ; = r =                       ",
"              = 4 7 r r y r y y r r r r 8 4 r Y Z d = u 4 r 6 A g e.9.n a - 8.= ; 4 =                       ",
"              = 2 7 7 l r 7 7 r y r r y 4 2 , n V f + # = r 4 Y m d.i.U N ; a.= 6 4 &                       ",
"          & 6 4 r l l l r l l r 4 4 4 4 4 t S @.@.@.v f = 4 4 x V t.r.e x >.u.= 4 =                         ",
"        - 4 6 4 l l l r r r y r 4 = = # r A @.@.@.@.@.f = = 4 4 p L Q 7.6.;.Z = 4 =                         ",
"        - 6 y l l k 6 4 r r r 4 = = - # r A A @.@.@.@.@.f = - 4 6 6 r r r 6 = 4 4 =                         ",
"      = 4 4 8 r l r r 4 = = - = = 4 = = = f A A @.@.@.@.A f 4 = ; 4 4 = 4 = = 4 4 = =                       ",
"      = 4 4 6 r r r r r 4 = = = = 4 6 = - 4 f A A @.@.A A f r L r = 4 = = = 4 4 4 r =                       ",
"      = 4 4 7 r r r l r r =   = = 4 4 4 4 4 4 f A A A A f r A A A + = s = 4 6 4 l l l -       - = =         ",
"        - 4 r r l r l r = =     = = 6 4 4 r c 7 r r r r f f f A A S x r = 4 6 r r l l r = = ; 4 l l =       ",
"        1 6 7 r l l l r -       = = = # 4 4 7 r 7 f A S A A f 7 6 4 ; ; = 4 4 r r r r r = 7 r , A A , =     ",
"        = 6 7 r l l k r -         - - = 4 4 4 y A +.@.+.A +.+.r r = =   = = 4 4 r r r r = } X.6 x , A 7 -   ",
"        = 6 7 l l F l l r =       - = # 4 4 4 f +.@.@.A d @.A r r       = = - 4 4 4 7 - = c C 7 7 ) ) A =   ",
"          & 6 l l G F l k r -   = - = = 4 4 6 Y V Z Z A A S f 7 r         = = = 6 4 4 4 = 7 c f L 0 V A =   ",
"          & 4 r l F G G l z l * = = 4 4 8 4 6 n A A $.$.A A f 4 6 5 O         = 4 2 2 4 = B f w A f Y L =   ",
"          & : 7 l H F F l l k @ = # r 7 r 2 6 b A A +.@.A A x 6 2 4 -         $ $ $ = 4 4 N r 9 Z Z f t $   ",
"          & : 7 k l H l l k L e = r 8 4 r r 6 4 f A A A A d 6 4 4 r 6 - =           = = = c f N t f f =     ",
"          & : y r k k l ( l r q = 4 z l l r r 4 4 f A A f r 4 r r 7 k l y =             X 2 1 f c t =       ",
"          & = x r / l ( ( 9 x e = l l l l l r r 4 6 4 4 4 4 4 r r 8 l l l l =               = = = =         ",
"              = A r A w A f = = l l l l l r r 4 6 4 4 4 4 = 6 r r r r l l l l =                             ",
"              = f 9 f 0 x 7 - 4 l l l l l l r 4 = 4 4 4 = 6 4 4 8 r r r l l l r =                           ",
"                = = = - = = = l l G u l l l 6 4 = - = = = = 4 6 6 4 r r r l l l =                           ",
"                          = 7 7 F F p l l r 4 = =         = = 4 4 4 4 r r r l k l =                         ",
"                        = = 7 7 F l l z r r = =               % = = 4 4 r r r l l =                         ",
"                        = = 4 r l l i r r = =                   O = = 4 4 4 r r 7 =                         ",
"                      = = 4 4 4 4 4 4 2 = =                   $ = # 4 6 4 4 4 4 =                           ",
"                      = 2 4 4 4 4 4 = - -                     o 2 6 4 4 4 4 4 -                             ",
"                      = 4 4 4 4 4 6 - =                       $ 2 4 4 4 4 2 ;                               ",
"                      - 4 4 4 4 6 = %                         o 2 4 4 4 2 4 -                               ",
"                      = 4 2 4 4 = =                         = 4 4 4 4 4 4 = =                               ",
"                    = 4 2 7 7 7 =                         = 4 r 7 2 7 7 7 7 = = =                           ",
"                  = x Z r c , e e #                       = V # r r 7 C B ^ r E e =                         ",
"                = B f ^ = ( = 9 e #                       = e x @ = = > 9 v E r E e =                       ",
"                = = = = = = = = = =                         = = = = = - = - = = = = =                       ",
"                                                                                                            ",
"                                                                                                            ",
"                                                                                                            ",
"                                                                                                            "
};
